<?xml version="1.0" encoding="UTF-8" standalone="no"?>
<!-- Created with Inkscape (http://www.inkscape.org/) -->

<svg
   xmlns:dc="http://purl.org/dc/elements/1.1/"
   xmlns:cc="http://creativecommons.org/ns#"
   xmlns:rdf="http://www.w3.org/1999/02/22-rdf-syntax-ns#"
   xmlns:svg="http://www.w3.org/2000/svg"
   xmlns="http://www.w3.org/2000/svg"
   xmlns:sodipodi="http://sodipodi.sourceforge.net/DTD/sodipodi-0.dtd"
   xmlns:inkscape="http://www.inkscape.org/namespaces/inkscape"
   width="32"
   height="32"
   id="svg3082"
   version="1.1"
   inkscape:version="0.48.4 r9939"
   sodipodi:docname="player.svg"
   inkscape:export-filename="/home/john/Documents/www/gamemechanicexplorer.com/www/assets/gfx/player.png"
   inkscape:export-xdpi="90"
   inkscape:export-ydpi="90">
  <defs
     id="defs3084" />
  <sodipodi:namedview
     id="base"
     pagecolor="#ffffff"
     bordercolor="#666666"
     borderopacity="1.0"
     inkscape:pageopacity="0.0"
     inkscape:pageshadow="2"
     inkscape:zoom="11.313708"
     inkscape:cx="11.247525"
     inkscape:cy="11.740374"
     inkscape:document-units="px"
     inkscape:current-layer="layer1"
     showgrid="false"
     inkscape:window-width="1855"
     inkscape:window-height="1056"
     inkscape:window-x="65"
     inkscape:window-y="24"
     inkscape:window-maximized="1" />
  <metadata
     id="metadata3087">
    <rdf:RDF>
      <cc:Work
         rdf:about="">
        <dc:format>image/svg+xml</dc:format>
        <dc:type
           rdf:resource="http://purl.org/dc/dcmitype/StillImage" />
        <dc:title></dc:title>
      </cc:Work>
    </rdf:RDF>
  </metadata>
  <g
     inkscape:label="Layer 1"
     inkscape:groupmode="layer"
     id="layer1"
     transform="translate(0,-1020.3622)">
    <path
       style="fill:#ffffff;fill-opacity:1;fill-rule:nonzero;stroke:none"
       d="M 4 0 L 4 26 L 10 26 L 10 32 L 14 32 L 14 26 L 18 26 L 18 32 L 22 32 L 22 26 L 28 26 L 28 0 L 4 0 z M 12 14.6875 C 13.108 14.6875 14 15.5795 14 16.6875 L 14 20.6875 C 14 21.7955 13.108 22.6875 12 22.6875 C 10.892 22.6875 10 21.7955 10 20.6875 L 10 16.6875 C 10 15.5795 10.892 14.6875 12 14.6875 z M 20 14.6875 C 21.108 14.6875 22 15.5795 22 16.6875 L 22 20.6875 C 22 21.7955 21.108 22.6875 20 22.6875 C 18.892 22.6875 18 21.7955 18 20.6875 L 18 16.6875 C 18 15.5795 18.892 14.6875 20 14.6875 z "
       transform="translate(0,1020.3622)"
       id="rect3865" />
  </g>
</svg>
