<?xml version="1.0" encoding="UTF-8" standalone="no"?>
<!-- Created with Inkscape (http://www.inkscape.org/) -->

<svg
   xmlns:dc="http://purl.org/dc/elements/1.1/"
   xmlns:cc="http://creativecommons.org/ns#"
   xmlns:rdf="http://www.w3.org/1999/02/22-rdf-syntax-ns#"
   xmlns:svg="http://www.w3.org/2000/svg"
   xmlns="http://www.w3.org/2000/svg"
   xmlns:sodipodi="http://sodipodi.sourceforge.net/DTD/sodipodi-0.dtd"
   xmlns:inkscape="http://www.inkscape.org/namespaces/inkscape"
   width="32"
   height="64"
   id="svg3082"
   version="1.1"
   inkscape:version="0.48.4 r9939"
   sodipodi:docname="ship.svg"
   inkscape:export-filename="/home/john/Documents/www/gamemechanicexplorer.com/www/assets/gfx/ship.png"
   inkscape:export-xdpi="90"
   inkscape:export-ydpi="90">
  <defs
     id="defs3084" />
  <sodipodi:namedview
     id="base"
     pagecolor="#ffffff"
     bordercolor="#666666"
     borderopacity="1.0"
     inkscape:pageopacity="0.0"
     inkscape:pageshadow="2"
     inkscape:zoom="113.625"
     inkscape:cx="26.198391"
     inkscape:cy="15.253679"
     inkscape:document-units="px"
     inkscape:current-layer="layer1"
     showgrid="false"
     inkscape:window-width="1855"
     inkscape:window-height="1056"
     inkscape:window-x="65"
     inkscape:window-y="24"
     inkscape:window-maximized="1" />
  <metadata
     id="metadata3087">
    <rdf:RDF>
      <cc:Work
         rdf:about="">
        <dc:format>image/svg+xml</dc:format>
        <dc:type
           rdf:resource="http://purl.org/dc/dcmitype/StillImage" />
        <dc:title />
      </cc:Work>
    </rdf:RDF>
  </metadata>
  <g
     inkscape:label="Layer 1"
     inkscape:groupmode="layer"
     id="layer1"
     transform="translate(0,-988.3622)">
    <path
       style="fill:#ffffff;fill-opacity:1;stroke:none"
       d="M 31.999496,1005.2685 32,1003.3622 l -13,-15 -4,0 0,7 -8,3 0,12 8,3 0,7 3.999986,2e-4 L 32,1005.3622 z M 23,1009.3622 l -1,0 -2,-2 0,-6 2,-2 1,0 5,4 0,2 z"
       id="path3849"
       inkscape:connector-curvature="0"
       sodipodi:nodetypes="ccccccccccccccccccccc" />
    <path
       sodipodi:nodetypes="ccccccccccccccccccccc"
       inkscape:connector-curvature="0"
       id="path3975"
       d="M 31.999496,1037.2683 32,1035.362 l -13,-15 -4,0 0,7 -8,3 0,12 8,3 0,7 3.999986,2e-4 L 32,1037.362 z M 23,1041.362 l -1,0 -2,-2 0,-6 2,-2 1,0 5,4 0,2 z"
       style="fill:#ffffff;fill-opacity:1;stroke:none" />
    <path
       transform="translate(0,988.3622)"
       style="fill:#ffbd3c;fill-opacity:1;fill-rule:nonzero;stroke:none"
       d="M 6,42 6,54 0,48 z"
       id="rect3977"
       inkscape:connector-curvature="0"
       sodipodi:nodetypes="cccc" />
  </g>
</svg>
